/* XPM */
static char *c5302c799c5c4bf0fb46e87f63aacb5csB3NFaJIpZRC67YL[] = {
/* columns rows colors chars-per-pixel */
"40 40 232 2 ",
"   c #000000",
".  c #0E0503",
"X  c #190C09",
"o  c #271009",
"O  c #3A170E",
"+  c #272221",
"@  c #2C2C2D",
"#  c #3E2621",
"$  c #3B2D28",
"%  c #2F2F30",
"&  c #313131",
"*  c #3D3430",
"=  c #452416",
"-  c #622515",
";  c #662918",
":  c #762C1B",
">  c #79331D",
",  c #492F23",
"<  c #483626",
"1  c #4C3425",
"2  c #43322E",
"3  c #4C362E",
"4  c #503725",
"5  c #533927",
"6  c #543B29",
"7  c #453632",
"8  c #453936",
"9  c #493B37",
"0  c #4C3A34",
"q  c #513D35",
"w  c #523F38",
"e  c #60392F",
"r  c #7C4329",
"t  c #7B4738",
"y  c #6C4740",
"u  c #8A371E",
"i  c #A61E22",
"p  c #903624",
"a  c #AB2723",
"s  c #AD3122",
"d  c #A73826",
"f  c #B73B2A",
"g  c #B03630",
"h  c #C33E28",
"j  c #844936",
"k  c #9C4931",
"l  c #A94526",
"z  c #AD442A",
"x  c #AB4B2A",
"c  c #B64426",
"v  c #B74626",
"b  c #B4462D",
"n  c #BD452A",
"m  c #BD4B2B",
"M  c #B5532E",
"N  c #BD512E",
"B  c #AE4431",
"V  c #A94D33",
"C  c #B94C34",
"Z  c #A35037",
"A  c #B65335",
"S  c #BD5334",
"D  c #B95937",
"F  c #BB553D",
"G  c #BC5B3C",
"H  c #BD613A",
"J  c #C4442B",
"K  c #C54A2B",
"L  c #C34D2A",
"P  c #C4532E",
"I  c #CA552E",
"U  c #D25C2D",
"Y  c #C14D34",
"T  c #C94E31",
"R  c #C24A38",
"E  c #C35532",
"W  c #CA5431",
"Q  c #C55933",
"!  c #CC5B33",
"~  c #C3553B",
"^  c #C8513A",
"/  c #C35C3C",
"(  c #CA5D3B",
")  c #D15E34",
"_  c #CA613B",
"`  c #CD623D",
"'  c #D16136",
"]  c #D2653B",
"[  c #D4683F",
"{  c #DA6D3F",
"}  c #825445",
"|  c #8F5C4F",
" . c #A74D43",
".. c #A55A45",
"X. c #A65A47",
"o. c #B45C46",
"O. c #BC5C43",
"+. c #B95A46",
"@. c #AD5A51",
"#. c #91645C",
"$. c #AE674D",
"%. c #BA6342",
"&. c #B56A42",
"*. c #B7624A",
"=. c #BA634D",
"-. c #BC6A4F",
";. c #B46755",
":. c #BB6653",
">. c #BD6B51",
",. c #B56C5D",
"<. c #BA6B5C",
"1. c #BD775E",
"2. c #916E67",
"3. c #BE6E65",
"4. c #A57065",
"5. c #B77666",
"6. c #BB7564",
"7. c #BA7469",
"8. c #BC7B6D",
"9. c #BE7971",
"0. c #C35E42",
"q. c #C15A44",
"w. c #CD5C41",
"e. c #C56443",
"r. c #CB6542",
"t. c #CC6A45",
"y. c #C4664A",
"u. c #C56B4E",
"i. c #CC6B4C",
"p. c #D06641",
"a. c #D36B43",
"s. c #D96E42",
"d. c #D26D49",
"f. c #CF714F",
"g. c #D4734E",
"h. c #DA774B",
"j. c #C26B54",
"k. c #CA6E54",
"l. c #C66758",
"z. c #C46C5A",
"x. c #D06F52",
"c. c #C47055",
"v. c #CC7355",
"b. c #C5735C",
"n. c #CC765C",
"m. c #CE7B5E",
"M. c #D37453",
"N. c #D57657",
"B. c #D67953",
"V. c #D27B5C",
"C. c #C37563",
"Z. c #CD7664",
"A. c #C67964",
"S. c #CC7C63",
"D. c #C47B6B",
"F. c #CC7D6A",
"G. c #D37D62",
"H. c #C97F76",
"J. c #BC8765",
"K. c #BF8373",
"L. c #C98267",
"P. c #CC836D",
"I. c #D58265",
"U. c #D98363",
"Y. c #D08863",
"T. c #D2846C",
"R. c #D8866A",
"E. c #D5896D",
"W. c #DA8B6C",
"Q. c #C48374",
"!. c #CC8472",
"~. c #C28874",
"^. c #CD8B74",
"/. c #C6867D",
"(. c #CA847A",
"). c #C48A7C",
"_. c #CD8B7C",
"`. c #D18572",
"'. c #D48C74",
"]. c #D98C72",
"[. c #D0847A",
"{. c #D38D7A",
"}. c #CE917E",
"|. c #D49074",
" X c #DB9175",
".X c #D5917C",
"XX c #DE9A7D",
"oX c #E39170",
"OX c #C5A57D",
"+X c #BE958C",
"@X c #C08884",
"#X c #CC8C84",
"$X c #D38C82",
"%X c #CD9383",
"&X c #CA968B",
"*X c #CC9589",
"=X c #CC998C",
"-X c #D39583",
";X c #D59985",
":X c #DB9B85",
">X c #D3978B",
",X c #D39A8B",
"<X c #DA9D8B",
"1X c #CC9C92",
"2X c #C59F9A",
"3X c #D49E92",
"4X c #DC9F92",
"5X c #DBA18E",
"6X c #CEA495",
"7X c #D5A195",
"8X c #DBA393",
"9X c #DEA997",
"0X c #D4A59B",
"qX c #DAA59A",
"wX c #D5A99E",
"eX c #DCAA9B",
"rX c #E0A38D",
"tX c #E0A691",
"yX c #E1A996",
"uX c #E1AD9C",
"iX c #DBAEA3",
"pX c #CBB1AB",
"aX c #DDB1A4",
"sX c #D8B4AB",
"dX c #DFBAB3",
"fX c #D9B9B6",
"gX c #E3B4A4",
"hX c #E2B5AA",
"jX c #E5BAAC",
"kX c #E9BEAF",
"lX c #E2BDB3",
"zX c #D8C6C3",
/* pixels */
"@ & & & & & & & & & & & % % & & % @ @ @ @ @ @ @ @ @ @ @ @ @ @ @ @ @ @ @ @ @ @ @ ",
"@ #.o.X.4.*.*.*.=.>.6.6.-.-.-.*.*.5.+.+.=.:.=.4.$.;.$.X.X.X.5.>.c.>.=.o.5. . .2 ",
"@ ).A.D.=X{.F.-X.X-X7X;X.X.X!.F.'.3X`.[..XP.[.1X}.%X~.Q.Q.K.*X}.~.!.!.{.7X~.%X8 ",
"@ E.[ [ [ ( Q `.p.` ` ` ( ` I.d.t.p.` ( .X^ w.( ( ( b.i.( ` ( p.[ .Xp.` ` ( ( 0 ",
"@ ).v.v.F q.F Q.( e._ F F 0.5.*.o.A G / _.R ~ 0./ e.;.S.A O.y.c.u.%X/ e./ A / 0 ",
"@ }.R.U.wX,.,.<.<.<.@XW.M.B.v.v.k.1XI.n.G.U.U.<XT.I.W.R.R.XX.Xi.M.V.g.M.-Xg.B.0 ",
"@ j._ _ 7.z m z d d ;.V.t.r.b b c 5.m m c n N =.L m E ! Q i.n.Y E P E E Q./ / 0 ",
"@ zXkXjXkXaXeXlXuXgXjXgXqX7XiXuXeXgXuXhXsX&X+X0X0X&XfX.X{.{.XXXX.XiX<X:XrXXX:X9 ",
"@ A.P P ! ! W m.' ! m m c Q u.P L L L u # .   o d d 7.L L ! ! ! ( :.L K W s.] w ",
"@ 6XI.S.8X.X{.<X'.^.}.7X*X7X1X3X/.y X           2.3XlX9X5X;X3XqX7XiX8X3XwX;X,X9 ",
"@ v.' ! D.J L I ' Q B.o.E T L ; .               u ! L P L Q j.W W T T J z.] ` q ",
"@ )._.P.1XA.!.C.L..X*XQ.F.$.X                   } {.{.S.z.'.(.S.n.T.F.Z.%XL.P.8 ",
"@ K.G D G G G ^.( / ~ ( w.p     o               j h.XXk.! ' [ [ [ P.r./ ` ` _ 0 ",
"@ 8.V l M A x K.F D A ~ C R X.V S O             r t.|.:.O.F / f.t.6.E z Q ( D 0 ",
"@ .XN.k.}.'.'.^.'.^.,X.X X].].`..X7             t V.U.U.U.XX:X X.X.XS.S.>Xz.k.8 ",
"@ c.P m >.W E P P m G G m n c m S #             : n L s.[ V.t.` m c L P C.L m 0 ",
"@ pXiXsXiXwXgXdXqXiXkXiXqX3XiXaXjX9             2.hXfX>X<X8X8X;X<XsX%X8X9X<X-X8 ",
"@ 6.m P P P W m.' ! L L L W b.! P O             : J F.E L ! Q ! ! ;.n L ! { ' q ",
"@ pX5X-X*XL.P.>X.X-X8XqX-XiX0X,X#X2             #.qXlXqXqX<X8.-X!.*XF.'.-X'. X8 ",
"@ j.Q Q ~.M S M l l V z.! W W T J 7             > P ! W ! d.n.c P Q ' ' P.' ] q ",
"@ _.L.S.0XL.P.1.,.,.,.#XS.S.n.k.l.7             t z.m.n.V.E.{.b.j.c.A.b.1XA.!.7 ",
"@ #Xw.w.w.w.( `.d.d.d.d.i.x.'.h.h.=             j V.`.i.( r.t.d.t.}.H G %.G %.7 ",
"@ D.n K E Q E 6.Q E E m m L <.G A O             : m B u.b S E r.( K.l x x d l 2 ",
"@ ).z.<.%XW.'..X`.{.8X(.!.[.[.(.#X8             } E.W.W.G.XXtX:X<X:X'.'.qXn.V.8 ",
"@ =.d s =.! ! ! P L / g s a a a g #             : J L s.a.V.t.' L L L P F.L P 0 ",
"@ 2X*X,X3X}.<X0X!._.<X/./.9.1X7XqX9             | 9XwX0XqXwXqX7X9XdX%X8XeX5X>X7 ",
"@ F.L P ! ! ! T.E ! W W J J M.U ] =             > ! I.e.L I ! ! ! !.L L I { ' q ",
"@ 6X;X{.8X:X;XhX8X<X8X9X4X8XgXuXeX$             t T.:X.XT.^.'.I.G.<XF.`.>X.X<X8 ",
"@ e.W P b.L L P E ! v.d.! I ! L u .             X D ' I L Y u.' ' ! I L S.J L 3 ",
"@ ^.I.F.*XT.b.T.T.E.-X'.G.m.n.j                   X F.z.j.=.D.b.:.b.k.c._.c.m.0 ",
"@ L.( ( ` ` [ E.p.p.( ( ! r.S.G ; - - - e ; - - ; : $Xx l x A / A C.E ! ' ] ' 0 ",
"@ 1./ A / e.( !.u.c.y.O.A n.,.+.A B F O.8.0.0.0.q.R _.Z Z k k X.Z 7.F O.O.v.v.8 ",
"@ Y.g.g.>Xk.g.B.B.M.W.{.V.G.G.Z.l.3XE.I.W.I.I.<XU.U.I.G.V.V._.z.n.z.z.l.#XU.oX0 ",
"@ %./ / 9.n Y m a.d.V.+.( E S n f j.L m ! ! E S.( r.E E m r.@.B b f f f j.` ! 3 ",
"@ J._.(.-X_.-XdX5XyXuXuX9XeXwX8X5XeX5X<XdX{.<X<X<X<XiX8X-XtXyXtX:XlXtX9XuXeXuX* ",
"@ &.S E f s s <.! ! ! I m m >.E Q E I L F.h J W ! ! +.r.L L L ) ! P.I ! ! P L 3 ",
"@ OXeX8XiXT.P.;XE.|.:X7X-X>X7X3X#XwX3X-XqX$X[.wXiXeXhXjX7XeX<X{.T.5XI.E.;XS.I.7 ",
"@ H ! ! ^.' ] ) L L C :.N L L J J H.a a i i a y.L L ! I ! d.n.L ! ! ' ) D.! ' 3 ",
"@ J.{.'.0X{..X!.C.C.6./.A.b.P.F.Z.7XD.A.3.3.7./.I.A.L.m.v.S.`.c.u.A.Q.D.1X8.8.2 ",
"@ < 1 1 1 1 4 < 4 4 6 5 6 5 < 4 6 6 6 6 < 4 4 4 4 5 4 1 4 5 5 4 5 < 1 , 1 , , + "
};
