/* XPM */
static char *_23981d7346248cf80320c9489cca973SW9SPBmmc0Wqgk4H[] = {
/* columns rows colors chars-per-pixel */
"40 40 196 2 ",
"   c #270E31",
".  c #2B213B",
"X  c #693215",
"o  c #5A2D37",
"O  c #6D4936",
"+  c #3F3B57",
"@  c #46114B",
"#  c #481B57",
"$  c #4D264B",
"%  c #492558",
"&  c #67375A",
"*  c #511765",
"=  c #4E2261",
"-  c #5A276B",
";  c #5A2B6B",
":  c #493465",
">  c #5A376A",
",  c #65346D",
"<  c #612E74",
"1  c #663B75",
"2  c #63327A",
"3  c #295956",
"4  c #345352",
"5  c #236C59",
"6  c #376658",
"7  c #337B70",
"8  c #455155",
"9  c #7B494D",
"0  c #6F5B52",
"q  c #757540",
"w  c #7C6E5D",
"e  c #4B4D6E",
"r  c #6C436D",
"t  c #6F4378",
"y  c #7C4F76",
"u  c #744A7E",
"i  c #4E666E",
"p  c #426F71",
"a  c #567E7E",
"s  c #8F610B",
"d  c #B17718",
"f  c #834E31",
"g  c #83503F",
"h  c #98692D",
"j  c #9B713D",
"k  c #A4712E",
"l  c #A87833",
"z  c #B67B34",
"x  c #8A5C40",
"c  c #966945",
"v  c #8C605B",
"b  c #957A5C",
"n  c #AE774D",
"m  c #896D6B",
"M  c #D2796B",
"N  c #1C835D",
"B  c #349759",
"V  c #189C66",
"C  c #268D66",
"Z  c #16A966",
"A  c #0DB463",
"S  c #00BF63",
"D  c #0CBC66",
"F  c #15B968",
"G  c #34AE6E",
"H  c #24BD6B",
"J  c #3BB665",
"K  c #548158",
"L  c #7AA657",
"P  c #4F9B6B",
"I  c #6E8771",
"U  c #44B86D",
"Y  c #40A179",
"T  c #67AF61",
"R  c #7AAD62",
"E  c #70B26A",
"W  c #0BC16B",
"Q  c #15C26E",
"!  c #19C574",
"~  c #BC8227",
"^  c #BC8C35",
"/  c #B38939",
"(  c #B7903E",
")  c #C18E33",
"_  c #C9963C",
"`  c #AF8747",
"'  c #BB884B",
"]  c #B09C5C",
"[  c #9C926F",
"{  c #B38972",
"}  c #B9887B",
"|  c #AC9E7A",
" . c #9AA778",
".. c #A0A962",
"X. c #C1944C",
"o. c #C69C4F",
"O. c #C88C53",
"+. c #C49C54",
"@. c #CA9E53",
"#. c #CAA55D",
"$. c #D3A352",
"%. c #C79D69",
"&. c #D99E66",
"*. c #C79A74",
"=. c #D89C73",
"-. c #CAA465",
";. c #D7AB66",
":. c #D1B06F",
">. c #CAA07E",
",. c #DBA07B",
"<. c #C9B376",
"1. c #D5B375",
"2. c #E1B478",
"3. c #6B3D82",
"4. c #6C4283",
"5. c #6F4B81",
"6. c #754B87",
"7. c #7B538A",
"8. c #7B4E90",
"9. c #94718B",
"0. c #866495",
"q. c #DF5E92",
"w. c #DF6097",
"e. c #E46392",
"r. c #EB6BA2",
"t. c #EF72A1",
"y. c #FF66C4",
"u. c #FD73C7",
"i. c #FD76C8",
"p. c #4BB884",
"a. c #76B78C",
"s. c #2BC980",
"d. c #35CB87",
"f. c #3CCB84",
"g. c #3ECD8E",
"h. c #4AD096",
"j. c #54D39C",
"k. c #63D6A6",
"l. c #69D7AB",
"z. c #6ED8AE",
"x. c #75DAB4",
"c. c #9C9588",
"v. c #B7A787",
"b. c #B7A595",
"n. c #BBB994",
"m. c #B49CB0",
"M. c #98B0BC",
"N. c #B9A4AA",
"B. c #B8B2A2",
"V. c #D7B984",
"C. c #D3B28E",
"Z. c #C9AB97",
"A. c #DDAD97",
"S. c #E2AB88",
"D. c #EDBA95",
"F. c #E1B99D",
"G. c #F0B692",
"H. c #C69EB8",
"J. c #E69ABF",
"K. c #8AC48C",
"L. c #A5C69A",
"P. c #85DEBE",
"I. c #DEC088",
"U. c #ECC698",
"Y. c #C5C6BD",
"T. c #EBCAAA",
"R. c #FC9BD5",
"E. c #F9AAD7",
"W. c #F6BEDC",
"Q. c #8ADFC2",
"!. c #AFD6D3",
"~. c #8DE0C4",
"^. c #9CE3CE",
"/. c #9FE4D0",
"(. c #A3E5D3",
"). c #A9E6D7",
"_. c #ACE7D9",
"`. c #B1E8DC",
"'. c #BEEBE5",
"]. c #DDCAC2",
"[. c #CFDBCF",
"{. c #D6DCD7",
"}. c #EED1CB",
"|. c #F9D0E5",
" X c #C5EDEA",
".X c #CAEEEE",
"XX c #DAECF2",
"oX c #D4F0F5",
"OX c #D8F1F7",
"+X c #DEF2FB",
"@X c #EFEDE9",
"#X c #F2EDEB",
"$X c #F3F3EE",
"%X c #E3F4FF",
"&X c #F6F6F1",
"*X c #F8F6F1",
/* pixels */
"%X%X%X%X%X%X%X%X%X%X%X%X%X%X%X%X%X%X%X%X%X%X%X%X%X%X%X%X%X%X%X%X%X%X%X%X%X%X%X%X",
"%X%X%X%X%X%X%X%X%X%X%X%X%X%X%X%X%X%X%X%X%X%X%X%X%X%X%X%X%X%X%X%X%X%X%X%X%X%X%X%X",
"%X%X%X%X%X%X%X%X%X%X%X%X%X%X%X%X%X%X%X%X%X%X%X%X%X%X%X%X%X%X%X%X%X%X%X%X%X%X%X%X",
"%X%X%X%X%X%X%X%X%X%X%X%X%X%X%X%X%X%X%X%X%X%X%X%X%X%X%X%X%X%X%X%X%X%X%X%X%X%X%X%X",
"%X%X%X%X%X%X%X%X%X%X%X%X%X%X%X%X%X%X%X%X%X%X%X%X%X%X%X%X%X%X%X%X%X%X%X%X%X%X%X%X",
"%X%X%X%X%X%X%X%X%X%X%X%X%X%X%X%X%X%X%X%X%X%X%X%X%X%X%X%X%X%X%X%X%X%X%X%X%X%X%X%X",
"%X%X%X%X%X%X%X%X%X%X%X%X%X%X%X%X%X%X%X%X%X%X%X%X%X%X%X%X%X%X%X%X%X%X%X%X%X%X%X%X",
"%X%X%X%X%X%X%X%X%X%X%X%X%X%X%X%X%X%X+X[.v.C.{.%X%X%X%X%X%X%X%X%X%X%X%X%X%X%X%X%X",
"%X%X%X%X%X%X%X%X%X%X%X%X%X%X%X.Xz.s.U ( s ( 1.K.x..X%X%X%X%X%X%X%X%X%X%X%X%X%X%X",
"%X%X%X%X%X%X%X%X%X%X%X%X%XoXk.S S F <.#.;.2.I.<.H S j. XXXY.{.%X%X%X%X%X%X%X%X%X",
"%X%X%X%X%X%X%X%X%X%X%X%X'.! S S S E :.U.U.U.V.-.R S ! a.B.Y.XX%X%X%X%X%X%X%X%X%X",
"%X%X%X%X%X%X%X%X%X%X%X_.W S S S S L 1.%.S.*.{ 1.] | b.B.p.! /.%X%X%X%X%X%X%X%X%X",
"%X%X%X%X%X%X%X%X%X%X.XQ S S S S S R :.=.D.D.G.*.v.F.Z.C.H S S k.+X%X%X%X%X%X%X%X",
"%X%X%X%X%X%X%X%X%X%Xg.S S S S S S ..%.=.S.S.*.c.c.L.T.Z.P S S S s. X%X%X%X%X%X%X",
"%X%X%X%X%X%X%X%X%X^.S S S S S S D #.-.x S.A.,.j / J U w I S S S S Q ).%X%X%X%X%X",
"%X%X%X%X%X%X%X%X%Xd.S S S S S S J o.$.X &.D.O.k @.T F [ n.S S S S S S Q.%X%X%X%X",
"%X%X%X%X%X%X%X%X XS S S S S D F E +.@.X &.&.g ' ) [ 8 b.T.F S S S S S S z.%X%X%X",
"%X%X%X%X%X%X%X%XQ.S S S S S a m #.o.X.o ' U.%.~ _ O $ 9.Z.I D S S S S S S k.%X%X",
"%X%X%X%X%X%X%X%Xz.S S S S A 5.c ^ o.X.f n D.z k d x ; 8.3.; C S S S S S S S k.%X",
"%X%X%X%X%X%X%X%Xl.S S S D e 5.c ^ ^ t.q.r.r.e.w.z 9 & 3.# = N S S S S S S S S x.",
"%X%X%X%X%X%X%X%Xl.S S S 4 2 u ` ^ X.y.y.y.y.y.y.n , @ - 1 1 e S S S S S S S S k.",
"%X%X%X%X%X%X%X%Xz.S S 5 * 4.1 / l ' y.y.M O.A.} m r # 3.6.0.e S S S S S S S d.OX",
"%X%X%X%X%X%X%X%XP.S V * 2 1 $ h l ' y.y.}.V.}.b.y ,   2 8.0.p S S S S S S h.OX%X",
"%X%X%X%X%X%X%X%X'.D : - < > 6 q h n y.y.R.E.E.J.u - . A C Z S S S S S S h.+X%X%X",
"%X%X%X%X%X%X%X%X%XY # > % N S K 0 v y.y.y.y.y.u.7.< 3 S W S W S S S S l.%X%X%X%X",
"%X%X%X%X%X%X%X%X%XM.* %   7 S B 3 y y.y.E.W.W.W.0.t 5 S S S S S S S ~.%X%X%X%X%X",
"%X%X%X%X%X%X%X%X%X+Xi   4.4.V A P } y.y.|.*X$X@X9.1 4 S S S S S Q `.%X%X%X%X%X%X",
"%X%X%X%X%X%X%X%X%X%X!.: r }  .F | b.y.y.|.&X$X&Xm., 8 S S S S g.oX%X%X%X%X%X%X%X",
"%X%X%X%X%X%X%X%X%X%X%XM.4  .>.b } ].y.y.u.i.i.i.H.; + S S W P.%X%X%X%X%X%X%X%X%X",
"%X%X%X%X%X%X%X%X%X%X%X%X/.Q B m N.#Xy.y.y.y.y.y.H.; 6 S g. X%X%X%X%X%X%X%X%X%X%X",
"%X%X%X%X%X%X%X%X%X%X%X%X%X Xg.A f.f.f.f.f.f.f.f.G V p.).%X%X%X%X%X%X%X%X%X%X%X%X",
"%X%X%X%X%X%X%X%X%X%X%X%X%X%X%X).j.W S S S S S W j._.%X%X%X%X%X%X%X%X%X%X%X%X%X%X",
"%X%X%X%X%X%X%X%X%X%X%X%X%X%X%X%X%X%X X).(.). X%X%X%X%X%X%X%X%X%X%X%X%X%X%X%X%X%X",
"%X%X%X%X%X%X%X%X%X%X%X%X%X%X%X%X%X%X%X%X%X%X%X%X%X%X%X%X%X%X%X%X%X%X%X%X%X%X%X%X",
"%X%X%X%X%X%X%X%X%X%X%X%X%X%X%X%X%X%X%X%X%X%X%X%X%X%X%X%X%X%X%X%X%X%X%X%X%X%X%X%X",
"%X%X%X%X%X%X%X%X%X%X%X%X%X%X%X%X%X%X%X%X%X%X%X%X%X%X%X%X%X%X%X%X%X%X%X%X%X%X%X%X",
"%X%X%X%X%X%X%X%X%X%X%X%X%X%X%X%X%X%X%X%X%X%X%X%X%X%X%X%X%X%X%X%X%X%X%X%X%X%X%X%X",
"%X%X%X%X%X%X%X%X%X%X%X%X%X%X%X%X%X%X%X%X%X%X%X%X%X%X%X%X%X%X%X%X%X%X%X%X%X%X%X%X",
"%X%X%X%X%X%X%X%X%X%X%X%X%X%X%X%X%X%X%X%X%X%X%X%X%X%X%X%X%X%X%X%X%X%X%X%X%X%X%X%X",
"%X%X%X%X%X%X%X%X%X%X%X%X%X%X%X%X%X%X%X%X%X%X%X%X%X%X%X%X%X%X%X%X%X%X%X%X%X%X%X%X"
};
