/* XPM */
static char *_7093e69462b4fd5e7ec9f640db5b1b45Jk2y0VqXtzuDJEj[] = {
/* columns rows colors chars-per-pixel */
"40 40 192 2 ",
"   c #270E31",
".  c #2B213B",
"X  c #693215",
"o  c #5A2D37",
"O  c #6D4936",
"+  c #3F3B57",
"@  c #46114B",
"#  c #481B57",
"$  c #4D264B",
"%  c #492558",
"&  c #70355D",
"*  c #511765",
"=  c #4E2261",
"-  c #5A296B",
";  c #4A3466",
":  c #5A376A",
">  c #612E74",
",  c #653D76",
"<  c #63327A",
"1  c #325453",
"2  c #236C59",
"3  c #376658",
"4  c #337B70",
"5  c #455155",
"6  c #7B494D",
"7  c #7A7745",
"8  c #7C6E5D",
"9  c #4B4D6E",
"0  c #6D4474",
"q  c #426F71",
"w  c #567E7E",
"e  c #B9263F",
"r  c #F4352F",
"t  c #E93D36",
"y  c #FF3131",
"u  c #F53932",
"i  c #F73938",
"p  c #9F5D0E",
"a  c #8F5213",
"s  c #8F610B",
"d  c #A0620E",
"f  c #A96D18",
"g  c #834E31",
"h  c #9A6D34",
"j  c #A8682D",
"k  c #AF702C",
"l  c #A27130",
"z  c #B67C37",
"x  c #D9473A",
"c  c #C57437",
"v  c #BA2641",
"b  c #BB2943",
"n  c #8A5C40",
"m  c #A65B46",
"M  c #966945",
"N  c #8A7A51",
"B  c #977C5B",
"V  c #B87D49",
"C  c #867065",
"Z  c #FC4846",
"A  c #FD5857",
"S  c #D6674E",
"D  c #CE7E41",
"F  c #FC6665",
"G  c #4D8C3E",
"H  c #1C835D",
"J  c #349759",
"K  c #11B55F",
"L  c #32AB5C",
"P  c #189C67",
"I  c #268D66",
"U  c #16A967",
"Y  c #0DB665",
"T  c #00BF63",
"R  c #0CBC66",
"E  c #15B968",
"W  c #37A162",
"Q  c #24BD6B",
"!  c #3BB665",
"~  c #548158",
"^  c #78A657",
"/  c #4C9F6A",
"(  c #6E8771",
")  c #43B96C",
"_  c #58B67A",
"`  c #67AF61",
"'  c #7AAD62",
"]  c #6CB56D",
"[  c #09C169",
"{  c #18C26F",
"}  c #15C471",
"|  c #1CC575",
" . c #1FC679",
".. c #24C77C",
"X. c #BA8933",
"o. c #B88A38",
"O. c #C18E33",
"+. c #C5953D",
"@. c #BC864F",
"#. c #B09252",
"$. c #9C926F",
"%. c #BB8B73",
"&. c #AF9D7B",
"*. c #9AA778",
"=. c #A0A962",
"-. c #C3984D",
";. c #C68A54",
":. c #C49C54",
">. c #CA9E53",
",. c #CAA55D",
"<. c #D3A352",
"1. c #C79D68",
"2. c #D99E66",
"3. c #C79A74",
"4. c #D89C73",
"5. c #E78376",
"6. c #CAA465",
"7. c #D7AB66",
"8. c #D1B06F",
"9. c #CAA07E",
"0. c #DBA07B",
"q. c #C9B376",
"w. c #D5B375",
"e. c #E1B478",
"r. c #6B3D82",
"t. c #6C4283",
"y. c #6F4B81",
"u. c #77508D",
"i. c #7B4E90",
"p. c #676D80",
"a. c #866495",
"s. c #55BD82",
"d. c #71B192",
"f. c #2EC982",
"g. c #35CB87",
"h. c #3DCA84",
"j. c #3CCD8C",
"k. c #47CF93",
"l. c #4CD197",
"z. c #55D39D",
"x. c #65CF9F",
"c. c #58D3A0",
"v. c #6DD8AE",
"b. c #78DBB5",
"n. c #9C9588",
"m. c #A49B84",
"M. c #B4A796",
"N. c #BCB290",
"B. c #B6B1A1",
"V. c #C49184",
"C. c #FC8A88",
"Z. c #F69A97",
"A. c #D6B986",
"S. c #C9AB97",
"D. c #DBAE91",
"F. c #E2AB88",
"G. c #F5A29A",
"H. c #EDBA95",
"J. c #E1B99D",
"K. c #F0B692",
"L. c #F7AEAB",
"P. c #A5C69A",
"I. c #85DEBE",
"U. c #DEC088",
"Y. c #ECC698",
"T. c #C2C5BB",
"R. c #EBCAAA",
"E. c #AAB5C7",
"W. c #8ADFC1",
"Q. c #8DE0C4",
"!. c #91E1C6",
"~. c #96E2CA",
"^. c #A6E6D5",
"/. c #B4E9DF",
"(. c #B6E9E0",
"). c #BCEBE4",
"_. c #C0DADF",
"`. c #D0D9D9",
"'. c #E8DCC4",
"]. c #F3D2CD",
"[. c #F4D6D1",
"{. c #F2DCD2",
"}. c #F4E3DF",
"|. c #C6EDEB",
" X c #CDEFF0",
".X c #D5EDF2",
"XX c #D5F0F5",
"oX c #D8F1F7",
"OX c #DEF3FB",
"+X c #F4F3EE",
"@X c #E3F4FF",
"#X c #F6F5F0",
/* pixels */
"@X@X@X@X@X@X@X@X@X@X@X@X@X@X@X@X@X@X@X@X@X@X@X@X@X@X@X@X@X@X@X@X@X@X@X@X@X@X@X@X",
"@X@X@X@X@X@X@X@X@X@X@X@X@X@X@X@X@X@X@X).f.k.oX@X@X@X@X@X@X@X@X@X@X@X@X@X@X@X@X@X",
"@X@X@X@X@X@X@X@X@X@X@X@X@X@X@X@X@X@X).} T T g.oX@X@X@X@X@X@X@X@X@X@X@X@X@X@X@X@X",
"@X@X@X@X@X@X@X@X@X@X@X@X@X@X@X@X@X X..T T T T l.OX@X@X@X@X@X@X@X@X@X@X@X@X@X@X@X",
"@X@X@X@X@X@X@X@X@X@X@X@X@X@X@X@XoX..T T T T T T z.@X@X@X@X@X@X@X@X@X@X@X@X@X@X@X",
"@X@X@X@X@X@X@X@X@X@X@X@X@X@X@XOXj.T T T T T T T T v.@X@X@X@X@X@X@X@X@X@X@X@X@X@X",
"@X@X@X@X@X@X@X@X@X@X@X@X@X@X@Xc.T T T T T T [ T T T !.@X@X@X@X@X@X@X@X@X@X@X@X@X",
"@X@X@X@X@X@X@X@X@X@X@X@X@X@XI.T T T T L G ^ ) [ T T [ (.@X@X@X@X@X@X@X@X@X@X@X@X",
"@X@X@X@X@X@X@X@X@X@X@X@X@X/.T T T T ) o.s o.w.] T T T | XX@X@X@X@X@X@X@X@X@X@X@X",
"@X@X@X@X@X@X@X@X@X@X@X@XoX| T T T E q.6.7.e.U.q.Q T T T x.T.`.@X@X@X@X@X@X@X@X@X",
"@X@X@X@X@X@X@X@X@X@X@X@Xz.T T T T ' 8.Y.Y.Y.A.6.' T { d.B.T..X@X@X@X@X@X@X@X@X@X",
"@X@X@X@X@X@X@X@X@X@X@X^.T T T T T ^ w.1.F.3.%.w.#.&.M.B.s.} .X@X@X@X@X@X@X@X@X@X",
"@X@X@X@X@X@X@X@X@X@XOX .T T T T [ ' 8.4.H.H.K.3.N.J.S.D.Q T z.@X@X@X@X@X@X@X@X@X",
"@X@X@X@X@X@X@X@X@X@Xb.T T T T T T =.1.4.F.F.3.n.m.P.R.S./ T T (.@X@X@X@X@X@X@X@X",
"@X@X@X@X@X@X@X@X@XOX} T T T T T R ,.6.n F.D.0.h o.! ) 8 ( T T k.@X@X@X@X@X@X@X@X",
"@X@X@X@X@X@X@X@X@XQ.T T T T T T ! -.<.X 2.H.;.l <.` E $.N.T T T |.@X@X@X@X@X@X@X",
"@X@X@X@X@X@X@X@X@Xg.T T T T R E ] :.>.X 2.2.n @.O.$.5 M.R.E [ [ v.@X@X@X@X@X@X@X",
"@X@X@X@X@X@X@X@XXXT T T T T w C ,.-.-.o @.Y.1.X.+.O $ C S.( R T f.@X@X@X@X@X@X@X",
"@X@X@X@X@X@X@X@X^.T T T T Y y.M o.>.-.g V H.z l f n - i.r.- I T T OX@X@X@X@X@X@X",
"@X@X@X@X@X@X@X@X!.T T T Y 9 y.M X.X.o.a j j d a k 6 & r.# = H T T XX@X@X@X@X@X@X",
"@X@X@X@X@X@X@X@X!.T T T 1 < 0 #.c D c 1.p d ,.z j & @ - , , 9 T T XX@X@X@X@X@X@X",
"@X@X@X@X@X@X@X@X~.T T 2 * t., o.u y y G.o.+.A.S y e # r.u.a.9 T T oX@X@X@X@X@X@X",
"@X@X@X@X@X@X@X@X(.T P * < , $ h u y y Z {.A.'.5.y e   < u.a.q T [ @X@X@X@X@X@X@X",
"@X@X@X@X@X@X@X@XOXR ; - > : 3 7 r y Z y C.+X#XZ.y v . Y I U T T j.@X@X@X@X@X@X@X",
"@X@X@X@X@X@X@X@X@Xd.# : % H T ~ r y G.y y [.#XZ.y v 1 T T T T T Q.@X@X@X@X@X@X@X",
"@X@X@X@X@X@X@X@X@XE.* %   4 T J t y {.F y F +XZ.y v 2 T T T T } OX@X@X@X@X@X@X@X",
"@X@X@X@X@X@X@X@X@X@Xp.  t.t.P Y t y ].].y y L.Z.y e 1 T T T T W.@X@X@X@X@X@X@X@X",
"@X@X@X@X@X@X@X@X@X@X_.; 0 %.*.Y u y [.#XC.y Z G.y b 5 T T T j.@X@X@X@X@X@X@X@X@X",
"@X@X@X@X@X@X@X@X@X@X@XE.1 *.9.B i y [.+X}.i y A y b + T T ..oX@X@X@X@X@X@X@X@X@X",
"@X@X@X@X@X@X@X@X@X@X@X@X/.| W C i y [.+X+XZ.y y y b 3 T j. X@X@X@X@X@X@X@X@X@X@X",
"@X@X@X@X@X@X@X@X@X@X@X@X@X.Xl.Y t y _ h.h.h.x y y m U v.OX@X@X@X@X@X@X@X@X@X@X@X",
"@X@X@X@X@X@X@X@X@X@X@X@X@X@X@X(.V.N K T T T J 7 B M. X@X@X@X@X@X@X@X@X@X@X@X@X@X",
"@X@X@X@X@X@X@X@X@X@X@X@X@X@X@X@X@XOX/.!.b.I.~.).@X@X@X@X@X@X@X@X@X@X@X@X@X@X@X@X",
"@X@X@X@X@X@X@X@X@X@X@X@X@X@X@X@X@X@X@X@X@X@X@X@X@X@X@X@X@X@X@X@X@X@X@X@X@X@X@X@X",
"@X@X@X@X@X@X@X@X@X@X@X@X@X@X@X@X@X@X@X@X@X@X@X@X@X@X@X@X@X@X@X@X@X@X@X@X@X@X@X@X",
"@X@X@X@X@X@X@X@X@X@X@X@X@X@X@X@X@X@X@X@X@X@X@X@X@X@X@X@X@X@X@X@X@X@X@X@X@X@X@X@X",
"@X@X@X@X@X@X@X@X@X@X@X@X@X@X@X@X@X@X@X@X@X@X@X@X@X@X@X@X@X@X@X@X@X@X@X@X@X@X@X@X",
"@X@X@X@X@X@X@X@X@X@X@X@X@X@X@X@X@X@X@X@X@X@X@X@X@X@X@X@X@X@X@X@X@X@X@X@X@X@X@X@X",
"@X@X@X@X@X@X@X@X@X@X@X@X@X@X@X@X@X@X@X@X@X@X@X@X@X@X@X@X@X@X@X@X@X@X@X@X@X@X@X@X",
"@X@X@X@X@X@X@X@X@X@X@X@X@X@X@X@X@X@X@X@X@X@X@X@X@X@X@X@X@X@X@X@X@X@X@X@X@X@X@X@X"
};
