/* XPM */
static char *f3a631ea40d8457ec0d7f18214726128Nedvgdf3drUsSVw5[] = {
/* columns rows colors chars-per-pixel */
"40 40 199 2 ",
"   c #270E31",
".  c #2B213B",
"X  c #693215",
"o  c #5A2D37",
"O  c #6D4936",
"+  c #3F3B57",
"@  c #46114B",
"#  c #481B57",
"$  c #4D264B",
"%  c #492558",
"&  c #67375A",
"*  c #511765",
"=  c #4E2261",
"-  c #5A276B",
";  c #5A2B6B",
":  c #493466",
">  c #5A376A",
",  c #65346D",
"<  c #612E74",
"1  c #663B75",
"2  c #63327A",
"3  c #295956",
"4  c #335352",
"5  c #236C59",
"6  c #376658",
"7  c #337B70",
"8  c #455155",
"9  c #7B494D",
"0  c #6F5B52",
"q  c #79724F",
"w  c #4B4D6E",
"e  c #6C436D",
"r  c #6F4378",
"t  c #7B4F75",
"y  c #744A7E",
"u  c #426F71",
"i  c #567E7E",
"p  c #6A7C7A",
"a  c #8F610B",
"s  c #B17718",
"d  c #834E31",
"f  c #83503F",
"g  c #98692D",
"h  c #9A713E",
"j  c #A9782F",
"k  c #A87833",
"l  c #B27B30",
"z  c #8A5C40",
"x  c #966945",
"c  c #8F6D5A",
"v  c #B87D49",
"b  c #886D6B",
"n  c #1C835D",
"m  c #349759",
"M  c #189C66",
"N  c #268D66",
"B  c #0DB463",
"V  c #00BF63",
"C  c #0CBC66",
"Z  c #15B06A",
"A  c #15B968",
"S  c #34AE6E",
"D  c #24BD6B",
"F  c #3BB665",
"G  c #548158",
"H  c #7AA657",
"J  c #4F9B6B",
"K  c #6E8771",
"L  c #44B86D",
"P  c #67AF61",
"I  c #7AAD62",
"U  c #6CB56D",
"Y  c #07C068",
"T  c #0CC16B",
"R  c #1DC26F",
"E  c #18C573",
"W  c #22C77B",
"Q  c #BC8227",
"!  c #BC8D34",
"~  c #B38939",
"^  c #B7903E",
"/  c #C18E33",
"(  c #C9963C",
")  c #BC864F",
"_  c #B38E49",
"`  c #AC965C",
"'  c #B09C5C",
"]  c #968F73",
"[  c #AF887C",
"{  c #BB8B73",
"}  c #AC9E7A",
"|  c #9AA778",
" . c #A0A962",
".. c #C3984D",
"X. c #C68A54",
"o. c #C49C54",
"O. c #CA9E53",
"+. c #CAA55D",
"@. c #D3A352",
"#. c #C79D69",
"$. c #D99E66",
"%. c #C79A74",
"&. c #D89C73",
"*. c #CAA465",
"=. c #D7AB66",
"-. c #D1B06F",
";. c #CAA07E",
":. c #DBA07B",
">. c #C9B376",
",. c #D5B375",
"<. c #E1B478",
"1. c #6B3D82",
"2. c #6C4283",
"3. c #6F4B81",
"4. c #754B87",
"5. c #7B538A",
"6. c #7B4E90",
"7. c #6F6E85",
"8. c #767CAB",
"9. c #906D86",
"0. c #866495",
"q. c #55BD82",
"w. c #74B68A",
"e. c #5594AF",
"r. c #79A7AD",
"t. c #7EB0A5",
"y. c #2CC981",
"u. c #33CB86",
"i. c #3BCA84",
"p. c #38CA8B",
"a. c #33C692",
"s. c #44CE91",
"d. c #51D29A",
"f. c #63D6A7",
"g. c #68D7AB",
"h. c #6DD8AE",
"j. c #72D9B2",
"k. c #7ADBB7",
"l. c #3EB2F3",
"z. c #38B6FF",
"x. c #49AADF",
"c. c #4AADE4",
"v. c #48BBFD",
"b. c #51BDFB",
"n. c #65B7E6",
"m. c #5FC3FC",
"M. c #66C5FA",
"N. c #7CCBF8",
"B. c #9C9588",
"V. c #A49B84",
"C. c #AEA381",
"Z. c #B7A595",
"A. c #BCB290",
"S. c #8395AF",
"D. c #86A5AA",
"F. c #AFAEAB",
"G. c #B7B2A1",
"H. c #D7B984",
"J. c #C9AB97",
"K. c #D6B091",
"L. c #E2AB88",
"P. c #EDBA95",
"I. c #E1B99D",
"U. c #F0B692",
"Y. c #C5B5BF",
"T. c #A5C69A",
"R. c #87DEBF",
"E. c #ADD3B7",
"W. c #DEC088",
"Q. c #ECC698",
"!. c #C6C6BD",
"~. c #EBCAAA",
"^. c #BFAFC0",
"/. c #BABDD3",
"(. c #BED9DE",
"). c #8DE0C4",
"_. c #94E1C9",
"`. c #97E2CB",
"'. c #A3E5D3",
"]. c #ACE7DA",
"[. c #B1E8DC",
"{. c #9CD1ED",
"}. c #9DD6F5",
"|. c #BEEBE5",
" X c #BEE1F2",
".X c #CFD6CD",
"XX c #E8DCC4",
"oX c #EEEADC",
"OX c #C6EDEB",
"+X c #D7E6EC",
"@X c #CAEBF3",
"#X c #DAECF2",
"$X c #D5F0F6",
"%X c #DFF3FC",
"&X c #F0EDE6",
"*X c #F5F4EE",
"=X c #E9F2F2",
"-X c #E3F4FF",
";X c #F6F5F0",
/* pixels */
"-X-X-X-X-X-X-X-X-X-X-X-X-X-X-X-X-X-X-X-X-X-X-X-X-X-X-X-X-X-X-X-X-X-X-X-X-X-X-X-X",
"-X-X-X-X-X-X-X-X-X-X-X-X-X-X-X-X-X-X-X-X-X-X-X-X-X-X-X-X-X-X-X-X-X-X-X-X-X-X-X-X",
"-X-X-X-X-X-X-X-X-X-X-X-X-X-X-X-X-X-X-X-X-X-X-X-X-X-X-X-X-X-X-X-X-X-X-X-X-X-X-X-X",
"-X-X-X-X-X-X-X-X-X-X-X-X-X-X-X-X-X-X-X-X-X-X-X-X-X-X-X-X-X-X-X-X-X-X-X-X-X-X-X-X",
"-X-X-X-X-X-X-X-X-X-X-X-X-X-X-X-X-X-X-X-X-X-X-X-X-X-X-X-X-X-X-X-X-X-X-X-X-X-X-X-X",
"-X-X-X-X-X-X-X-X-X-X-X-X-X-X-X-X-X-X-X-X-X-X-X-X-X-X-X-X-X-X-X-X-X-X-X-X-X-X-X-X",
"-X-X-X-X-X-X-X-X-X-X-X-X-X-X-X-X-X-X-X-X-X-X-X-X-X-X-X-X-X-X-X-X-X-X-X-X-X-X-X-X",
"-X-X-X-X-X-X-X-X-X-X-X-X-X-X-X-X-X$X].E.C.J..XOX-X-X-X-X-X-X-X-X-X-X-X-X-X-X-X-X",
"-X-X-X-X-X-X-X-X-X-X-X-X-X-X-X'.s.Y L ^ a ^ ,.U W k.$X-X-X-X-X-X-X-X-X-X-X-X-X-X",
"-X-X-X-X-X-X-X-X-X-X-X-X-XOXu.V V A >.+.=.<.W.>.D V T R.#X!..X-X-X-X-X-X-X-X-X-X",
"-X-X-X-X-X-X-X-X-X-X-X-X`.T V V V I -.Q.Q.Q.H.*.I V R w.G.!.#X-X-X-X-X-X-X-X-X-X",
"-X-X-X-X-X-X-X-X-X-X-X`.V V V V V H ,.#.L.%.{ ,.' } Z.G.q.s.%X-X-X-X-X-X-X-X-X-X",
"-X-X-X-X-X-X-X-X-X-X|.T V V V V V I -.&.P.P.U.%.A.I.J.K.D V f.-X-X-X-X-X-X-X-X-X",
"-X-X-X-X-X-X-X-X-X%Xy.V V V V V V  .#.&.L.L.%.B.V.T.~.J.J V V ].-X-X-X-X-X-X-X-X",
"-X-X-X-X-X-X-X-X-X).V V V V V V C +.*.z L.K.:.h ~ F L q K V V y.-X-X-X-X-X-X-X-X",
"-X-X-X-X-X-X-X-X-Xu.V V V V V V F ..@.X $.P.X.k @.P A ] A.V V V ].-X-X-X-X-X-X-X",
"-X-X-X-X-X-X-X-XOXV V V V V C A U o.O.X $.$.f ) / ] 8 Z.~.A V Y g.-X-X-X-X-X-X-X",
"-X-X-X-X-X-X-X-X`.V V V V V i b +.....o ) Q.#.Q ( O $ 9.J.K C V y.-X-X-X-X-X-X-X",
"-X-X-X-X-X-X-X-Xj.V V V V Z 3.x ! O...d v P.l j s z ; 6.1.; N V T -X-X-X-X-X-X-X",
"-X-X-X-X-X-X-X-Xh.V V V C w 3.x ! ! ` e.x.c.e.p l 9 & 1.# = n V V -X-X-X-X-X-X-X",
"-X-X-X-X-X-X-X-Xh.V V V 4 2 y _ ! ` l.z.z.z.z.l.h , @ - 1 1 w V V -X-X-X-X-X-X-X",
"-X-X-X-X-X-X-X-Xk.V V 5 * 2.1 ~ k D.z.b.` _ F.S.b e # 1.4.0.w V E -X-X-X-X-X-X-X",
"-X-X-X-X-X-X-X-X[.V M * 2 1 $ g k r.z.m.oXH.XXZ.t ,   2 6.0.u V d.-X-X-X-X-X-X-X",
"-X-X-X-X-X-X-X-X-XD : - < > 6 q g ] z.z.m. X;X.Xy - . B N Z V V `.-X-X-X-X-X-X-X",
"-X-X-X-X-X-X-X-X-Xt.# > % n V G 0 c {.z.z.z.M.+X5.< 3 V V V V T %X-X-X-X-X-X-X-X",
"-X-X-X-X-X-X-X-X-X/.* %   7 V m 3 t &X+XN.z.z.b.0.r 5 V V V V j.-X-X-X-X-X-X-X-X",
"-X-X-X-X-X-X-X-X-X-X7.  2.2.M B J [ &X*X;X@Xz.z.8.1 4 V V V T $X-X-X-X-X-X-X-X-X",
"-X-X-X-X-X-X-X-X-X-X(.: e { | A } D.+X;X;X=Xz.z.S., 8 V V V j.-X-X-X-X-X-X-X-X-X",
"-X-X-X-X-X-X-X-X-X-X-XD.4 | ;.c [ n.z.b.M.v.z.v.^.; + V V W %X-X-X-X-X-X-X-X-X-X",
"-X-X-X-X-X-X-X-X-X-X-X%Xu.V m b F.}.v.z.z.z.M.+XY.; 6 V V [.-X-X-X-X-X-X-X-X-X-X",
"-X-X-X-X-X-X-X-X-X-X-X-XOXT V B i.i.i.a.a.p.i.i.S M B V h.-X-X-X-X-X-X-X-X-X-X-X",
"-X-X-X-X-X-X-X-X-X-X-X-X-X`.V V V V V V V V V V V V V u.%X-X-X-X-X-X-X-X-X-X-X-X",
"-X-X-X-X-X-X-X-X-X-X-X-X-X-Xf.V V V V V V V V V V V E @X-X-X-X-X-X-X-X-X-X-X-X-X",
"-X-X-X-X-X-X-X-X-X-X-X-X-X-X%Xp.V V V V V V V V V Y [.-X-X-X-X-X-X-X-X-X-X-X-X-X",
"-X-X-X-X-X-X-X-X-X-X-X-X-X-X-X$XW V V V V V V V V ).-X-X-X-X-X-X-X-X-X-X-X-X-X-X",
"-X-X-X-X-X-X-X-X-X-X-X-X-X-X-X-XOXE V V V V V V k.-X-X-X-X-X-X-X-X-X-X-X-X-X-X-X",
"-X-X-X-X-X-X-X-X-X-X-X-X-X-X-X-X-X|.T V V V V f.-X-X-X-X-X-X-X-X-X-X-X-X-X-X-X-X",
"-X-X-X-X-X-X-X-X-X-X-X-X-X-X-X-X-X-X].T V V f.-X-X-X-X-X-X-X-X-X-X-X-X-X-X-X-X-X",
"-X-X-X-X-X-X-X-X-X-X-X-X-X-X-X-X-X-X-X].W g.-X-X-X-X-X-X-X-X-X-X-X-X-X-X-X-X-X-X",
"-X-X-X-X-X-X-X-X-X-X-X-X-X-X-X-X-X-X-X-X-X-X-X-X-X-X-X-X-X-X-X-X-X-X-X-X-X-X-X-X"
};
