/* XPM */
static char *c9829150d46549ce90d6a35a3f896c2c5Ft7ow2GwhSUTyAX[] = {
/* columns rows colors chars-per-pixel */
"40 40 195 2 ",
"   c #260F31",
".  c #693215",
"X  c #5A2D37",
"o  c #6D4936",
"O  c #3F3B57",
"+  c #491959",
"@  c #4A234A",
"#  c #492558",
"$  c #511765",
"%  c #4E2261",
"&  c #59286A",
"*  c #483465",
"=  c #5A376A",
"-  c #612E74",
";  c #643A78",
":  c #305452",
">  c #226D5D",
",  c #33615E",
"<  c #337B70",
"1  c #455155",
"2  c #576F57",
"3  c #7F6A44",
"4  c #7D695E",
"5  c #49506F",
"6  c #734873",
"7  c #426F71",
"8  c #567E7E",
"9  c #8F561C",
"0  c #8F610B",
"q  c #A0620E",
"w  c #B1631F",
"e  c #B17718",
"r  c #834E31",
"t  c #83503F",
"y  c #9F6E33",
"u  c #9B713D",
"i  c #A4712E",
"p  c #B27D26",
"a  c #A27130",
"s  c #B27B30",
"d  c #8A5C40",
"f  c #9E565B",
"g  c #906550",
"h  c #A06148",
"j  c #AA7B4F",
"k  c #81416D",
"l  c #824570",
"z  c #915571",
"x  c #8D6B6B",
"c  c #B2666A",
"v  c #C76D4F",
"b  c #C1735F",
"n  c #D47858",
"m  c #1C835D",
"M  c #19985F",
"N  c #2FB65F",
"B  c #189B65",
"V  c #268D66",
"C  c #14AC66",
"Z  c #00BF63",
"A  c #0CBC66",
"S  c #17BA69",
"D  c #24BD6B",
"F  c #3BB665",
"G  c #2EAF78",
"H  c #789A56",
"J  c #77A75A",
"K  c #4C9F6A",
"L  c #6E8771",
"P  c #44B86D",
"I  c #67AF61",
"U  c #7AAD62",
"Y  c #6CB56D",
"T  c #07C068",
"R  c #0CC26B",
"E  c #17C36F",
"W  c #15C471",
"Q  c #1AC575",
"!  c #22C77A",
"~  c #28C77D",
"^  c #BC8227",
"/  c #BD8D35",
"(  c #B58939",
")  c #B7903E",
"_  c #C28939",
"`  c #CF8E3E",
"'  c #B88748",
"]  c #AE9D53",
"[  c #B49857",
"{  c #9C926F",
"}  c #B68A6E",
"|  c #AF9D7B",
" . c #9AA778",
".. c #A0A962",
"X. c #CF864D",
"o. c #C1954B",
"O. c #C69C4F",
"+. c #C49C54",
"@. c #CA9E53",
"#. c #E7894A",
"$. c #E98848",
"%. c #F58C4D",
"&. c #EE914D",
"*. c #FF914D",
"=. c #E3885A",
"-. c #F58D52",
";. c #FE9656",
":. c #FB9658",
">. c #FA9759",
",. c #CAA55D",
"<. c #D3A358",
"1. c #DB8B62",
"2. c #C79D69",
"3. c #D99E66",
"4. c #C79A74",
"5. c #D89C73",
"6. c #FE9D60",
"7. c #CAA465",
"8. c #D7AB66",
"9. c #D1B06F",
"0. c #CAA07E",
"q. c #DBA07B",
"w. c #C9B376",
"e. c #D5B375",
"r. c #F7A266",
"t. c #FAAA76",
"y. c #FAAC79",
"u. c #E1B478",
"i. c #693D81",
"p. c #6D4283",
"a. c #6F4B81",
"s. c #774F8C",
"d. c #7B4E90",
"f. c #9A7680",
"g. c #866495",
"h. c #35BF80",
"j. c #55BD82",
"k. c #74B68A",
"l. c #74A3A2",
"z. c #2AC880",
"x. c #33CA85",
"c. c #3CCB84",
"v. c #3CCD8C",
"b. c #40CD8E",
"n. c #43CE91",
"m. c #56D39E",
"M. c #6AD7AC",
"N. c #77DAB5",
"B. c #9C9588",
"V. c #A49B84",
"C. c #AFA381",
"Z. c #B7A595",
"A. c #BCB290",
"S. c #B6B1A1",
"D. c #D8B38D",
"F. c #C9AB97",
"G. c #D9B896",
"H. c #E2AB88",
"J. c #F4B383",
"K. c #EDBA95",
"L. c #E1B99D",
"P. c #F1B992",
"I. c #A5C69A",
"U. c #85DEBE",
"Y. c #ECC698",
"T. c #C5C6BD",
"R. c #E6C8A6",
"E. c #F6C5A2",
"W. c #F9C5A4",
"Q. c #EBD0B6",
"!. c #8DE0C4",
"~. c #94E1C9",
"^. c #99E2CC",
"/. c #9FE4D0",
"(. c #AAE6D7",
"). c #AEE7DA",
"_. c #B4E9DF",
"`. c #BEEBE5",
"'. c #C8DAC8",
"]. c #D5D4D1",
"[. c #EED3C2",
"{. c #F7DCC9",
"}. c #FAE1CE",
"|. c #C6EDEB",
" X c #CAEEEE",
".X c #CEEFF0",
"XX c #D1EFF2",
"oX c #DDEBF1",
"OX c #D5F0F5",
"+X c #D8F1F7",
"@X c #DEF3FB",
"#X c #F3EEE8",
"$X c #F4F3EE",
"%X c #E3F4FF",
"&X c #F6F5F0",
/* pixels */
"%X%X%X%X%X%X%X%X%X%X%X%X%X%X%X%X%X%X%X%X%X%X%X%X%X%X%X%X%X%X%X%X%X%X%X%X%X%X%X%X",
"%X%X%X%X%X%X%X%X%X%X%X%X%X%X%X%X%X%X%X%X%X%X%X%X%X%X%X%X%X%X%X%X%X%X%X%X%X%X%X%X",
"%X%X%X%X%X%X%X%X%X%X%X%X%X%X%X%X%X%X%X%X%X%X%X%X%X%X%X%X%X%X%X%X%X%X%X%X%X%X%X%X",
"%X%X%X%X%X%X%X%X%X%X%X%X%X%X%X%X%X%X%X%X%X%X%X%X%X%X%X%X%X%X%X%X%X%X%X%X%X%X%X%X",
"%X%X%X%X%X%X%X%X%X%X%X%X%X%X%X%X%X%X%X%X%X%X%X%X%X%X%X%X%X%X%X%X%X%X%X%X%X%X%X%X",
"%X%X%X%X%X%X%X%X%X%X%X%X%X%X%X%X%X%X%X%X%X%X%X%X%X%X%X%X%X%X%X%X%X%X%X%X%X%X%X%X",
"%X%X%X%X%X%X%X%X%X%X%X%X%X%X%X%X%X%X%X%X%X%X%X%X%X%X%X%X%X%X%X%X%X%X%X%X%X%X%X%X",
"%X%X%X%X%X%X%X%X%X%X%X%X%X%X%X%X%X%X+X'.C.F.'.XX%X%X%X%X%X%X%X%X%X%X%X%X%X%X%X%X",
"%X%X%X%X%X%X%X%X%X%X%X%X%X%X%X@XU.x.P ) 0 ) e.Y ! M..X%X%X%X%X%X%X%X%X%X%X%X%X%X",
"%X%X%X%X%X%X%X%X%X%X%X%X%X@XN.R Z S w.,.8.u.D.w.D Z T N.oXT.].%X%X%X%X%X%X%X%X%X",
"%X%X%X%X%X%X%X%X%X%X%X%X~.W Z Z Z U 9.Y.E.Y.D.7.U Z E k.S.T.oX%X%X%X%X%X%X%X%X%X",
"%X%X%X%X%X%X%X%X%X%X Xn.Z Z Z Z Z J e.7.H.4.} e.[ | Z.S.j.~ OX%X%X%X%X%X%X%X%X%X",
"%X%X%X%X%X%X%X%X%X/.W Z Z Z Z Z Z U 9.5.K.K.P.4.A.L.F.G.D Z v.@X%X%X%X%X%X%X%X%X",
"%X%X%X%X%X%X%X@XM.Z Z Z Z Z Z Z Z ..2.5.H.H.4.B.V.I.Q.F.K Z Z N.%X%X%X%X%X%X%X%X",
"%X%X%X%X%X%X+Xb.Z Z Z Z Z Z Z Z A ,.7.d H.G.q.u ( F P 4 L Z Z R OX%X%X%X%X%X%X%X",
"%X%X%X%X%X X! Z Z Z Z Z Z Z Z Z F O.<.. 3.K.X.a <.I S { A.Z Z Z U.%X%X%X%X%X%X%X",
"%X%X%X%X`.W Z Z Z Z Z Z Z Z A S Y +.@.. 3.3.t ' _ { 1 Z.R.S Z Z v.%X%X%X%X%X%X%X",
"%X%X%X).R Z Z Z Z Z Z Z Z Z 8 x ,.O.o.X ' E.2.^ ` o @ f.F.L A Z T %X%X%X%X%X%X%X",
"%X%X).R Z Z Z Z Z Z Z Z Z C a.g / @.o.r j K.s i e d & d.i.& V Z Z .X%X%X%X%X%X%X",
"%X@XR Z Z Z Z Z Z Z Z Z A 4 n X./ / / w $.#.q 9 p h n n + % m Z Z |.%X%X%X%X%X%X",
"%X@XQ Z Z Z Z Z Z Z Z Z : k *.*./ o.' r.*.*.<.( y b *.n ; ; 5 Z Z |.%X%X%X%X%X%X",
"%X%X`.W Z Z Z Z Z Z Z > $ p.-.*._ ' G.>.*.*.J.} x =.*.c s.g.5 Z Z XX%X%X%X%X%X%X",
"%X%X%X|.! Z Z Z Z Z B $ - ; v *.` ' R.*.r.*.t.Z.6 %.*.l s.g.7 Z R %X%X%X%X%X%X%X",
"%X%X%X%X.Xz.Z Z Z Z * & - = 3 *.#.j P.*.W.;.;.].z *.%.C V C Z Z v.%X%X%X%X%X%X%X",
"%X%X%X%X%X+Xv.Z Z M + = # m N *.%.g y.*.{.t.*.[.c *.[ Z Z Z Z Z ~.%X%X%X%X%X%X%X",
"%X%X%X%X%X%X@XM.Z B $ #   < Z &.*.x ;.;.#XW.*.E.1.*.H Z Z Z Z Q @X%X%X%X%X%X%X%X",
"%X%X%X%X%X%X%X%X!.Z :   p.p.B ] *.1.*.y.&X}.*.J.>.*.2 Z Z Z Z ^.%X%X%X%X%X%X%X%X",
"%X%X%X%X%X%X%X%X%X`.G * 6 }  .J *.>.*.W.&X$X;.6.*.%.1 Z Z Z m.%X%X%X%X%X%X%X%X%X",
"%X%X%X%X%X%X%X%X%X%X@Xl.:  .0.j *.*.*.{.$X$Xy.*.*.v O Z Z v.@X%X%X%X%X%X%X%X%X%X",
"%X%X%X%X%X%X%X%X%X%X%X%X_.x.F x -.*.;.$X$X$XW.*.*.f , Z m.@X%X%X%X%X%X%X%X%X%X%X",
"%X%X%X%X%X%X%X%X%X%X%X%X%X%X^.h.c.c.c.c.c.c.c.c.G B G ^.%X%X%X%X%X%X%X%X%X%X%X%X",
"%X%X%X%X%X%X%X%X%X%X%X%X%X%X%X%X(.m.W Z Z Z Z R n.~.@X%X%X%X%X%X%X%X%X%X%X%X%X%X",
"%X%X%X%X%X%X%X%X%X%X%X%X%X%X%X%X%X%X%X+X X XOX%X%X%X%X%X%X%X%X%X%X%X%X%X%X%X%X%X",
"%X%X%X%X%X%X%X%X%X%X%X%X%X%X%X%X%X%X%X%X%X%X%X%X%X%X%X%X%X%X%X%X%X%X%X%X%X%X%X%X",
"%X%X%X%X%X%X%X%X%X%X%X%X%X%X%X%X%X%X%X%X%X%X%X%X%X%X%X%X%X%X%X%X%X%X%X%X%X%X%X%X",
"%X%X%X%X%X%X%X%X%X%X%X%X%X%X%X%X%X%X%X%X%X%X%X%X%X%X%X%X%X%X%X%X%X%X%X%X%X%X%X%X",
"%X%X%X%X%X%X%X%X%X%X%X%X%X%X%X%X%X%X%X%X%X%X%X%X%X%X%X%X%X%X%X%X%X%X%X%X%X%X%X%X",
"%X%X%X%X%X%X%X%X%X%X%X%X%X%X%X%X%X%X%X%X%X%X%X%X%X%X%X%X%X%X%X%X%X%X%X%X%X%X%X%X",
"%X%X%X%X%X%X%X%X%X%X%X%X%X%X%X%X%X%X%X%X%X%X%X%X%X%X%X%X%X%X%X%X%X%X%X%X%X%X%X%X",
"%X%X%X%X%X%X%X%X%X%X%X%X%X%X%X%X%X%X%X%X%X%X%X%X%X%X%X%X%X%X%X%X%X%X%X%X%X%X%X%X"
};
